#define mule_width 64
#define mule_height 64
static char mule_bits[] = {
   0x00, 0x00, 0x00, 0x00, 0x00, 0x00, 0x00, 0x00, 0x00, 0x00, 0x00, 0x00,
   0x00, 0x00, 0x00, 0x00, 0x00, 0x00, 0x00, 0x00, 0x00, 0x00, 0x00, 0x00,
   0x00, 0x00, 0x00, 0x00, 0x80, 0x0f, 0x00, 0x00, 0x00, 0x80, 0x07, 0x00,
   0x60, 0x04, 0x00, 0x00, 0x00, 0x80, 0x18, 0x00, 0x10, 0x02, 0x00, 0x00,
   0x00, 0x00, 0x21, 0x00, 0x08, 0x03, 0x00, 0x00, 0x00, 0x00, 0x41, 0x00,
   0x04, 0x01, 0x00, 0x00, 0x00, 0x00, 0x82, 0x20, 0x82, 0x01, 0x00, 0x00,
   0x00, 0x00, 0x0c, 0x29, 0xc3, 0x00, 0x00, 0x00, 0x00, 0x00, 0x18, 0x57,
   0x62, 0x00, 0x00, 0x00, 0x00, 0x00, 0xb0, 0xa8, 0x39, 0x00, 0x00, 0x00,
   0x00, 0x00, 0x20, 0xe0, 0x0b, 0x00, 0x00, 0x00, 0x00, 0x00, 0x20, 0xc0,
   0x0c, 0x00, 0x00, 0x00, 0x00, 0x00, 0x30, 0x00, 0x1c, 0x00, 0x00, 0x00,
   0x00, 0x00, 0x10, 0x60, 0x22, 0x00, 0x00, 0x00, 0x00, 0x00, 0x10, 0x78,
   0x26, 0x00, 0x00, 0x00, 0x00, 0x00, 0x30, 0x6c, 0x34, 0x00, 0x00, 0x00,
   0x00, 0x00, 0x18, 0xf8, 0xb7, 0x00, 0x00, 0x00, 0x00, 0x00, 0x08, 0x78,
   0xe6, 0x00, 0x00, 0x00, 0x00, 0x00, 0x08, 0x1c, 0xe4, 0x00, 0x00, 0x00,
   0x00, 0x00, 0x0c, 0x88, 0xc6, 0x04, 0x00, 0x00, 0x00, 0x00, 0x04, 0x0c,
   0x87, 0x04, 0x00, 0x00, 0x00, 0x00, 0x04, 0x0e, 0x86, 0x01, 0x00, 0x00,
   0x00, 0x00, 0x02, 0x92, 0x03, 0x07, 0x00, 0x00, 0x00, 0x00, 0x7e, 0xb2,
   0x02, 0x17, 0x00, 0x00, 0x00, 0x00, 0xe3, 0xe2, 0x01, 0x16, 0x00, 0x00,
   0x00, 0x80, 0x80, 0xe0, 0x00, 0x14, 0x00, 0x00, 0x00, 0x80, 0xc0, 0x11,
   0x00, 0x18, 0x00, 0x00, 0x00, 0x80, 0x71, 0x09, 0x00, 0x98, 0x00, 0x00,
   0x00, 0x80, 0x00, 0x2a, 0x00, 0xf0, 0x01, 0x00, 0x00, 0x80, 0x00, 0x27,
   0x10, 0xc0, 0x07, 0x00, 0x00, 0x00, 0x01, 0x63, 0x20, 0x00, 0x07, 0x00,
   0x00, 0x00, 0xbe, 0x41, 0x00, 0x00, 0x04, 0x00, 0x00, 0x00, 0xc2, 0xc0,
   0x20, 0x00, 0x00, 0x00, 0x00, 0x00, 0x3c, 0x40, 0x00, 0x00, 0x00, 0x00,
   0x00, 0x00, 0x00, 0xc0, 0x80, 0x00, 0x00, 0x00, 0x00, 0x00, 0x00, 0x40,
   0x00, 0x00, 0x00, 0x00, 0x00, 0x00, 0x00, 0x00, 0x00, 0x00, 0x00, 0x00,
   0x00, 0x00, 0x00, 0x00, 0x00, 0x00, 0x00, 0x00, 0x00, 0x00, 0x00, 0x00,
   0x00, 0x00, 0x00, 0x00, 0x00, 0xc1, 0x80, 0x00, 0x81, 0x01, 0x00, 0x00,
   0x00, 0xe1, 0x40, 0x81, 0x82, 0x01, 0xbf, 0x01, 0x80, 0x61, 0x20, 0x42,
   0x84, 0x01, 0xfe, 0x01, 0x80, 0x63, 0xc0, 0x24, 0x82, 0x01, 0x06, 0x00,
   0x80, 0x63, 0x80, 0x42, 0x82, 0x01, 0x06, 0x00, 0x80, 0xf3, 0x40, 0x82,
   0x82, 0x01, 0x06, 0x00, 0x80, 0xf3, 0x60, 0x81, 0x84, 0x01, 0x06, 0x00,
   0xc0, 0xf3, 0x20, 0x81, 0x84, 0x01, 0x06, 0x00, 0xc0, 0xdb, 0xd0, 0x00,
   0x8b, 0x01, 0x7e, 0x00, 0x40, 0xdb, 0x90, 0x00, 0x89, 0x01, 0x3e, 0x00,
   0x60, 0xca, 0x90, 0x00, 0x89, 0x01, 0x06, 0x00, 0x60, 0xce, 0x90, 0x00,
   0xc9, 0x00, 0x06, 0x00, 0x30, 0xce, 0x90, 0x00, 0xc9, 0x00, 0x07, 0x00,
   0x30, 0xce, 0x10, 0x81, 0xc8, 0x00, 0x07, 0x00, 0x18, 0xc6, 0x51, 0x81,
   0xca, 0x00, 0x07, 0x00, 0x0c, 0x86, 0x21, 0x66, 0x64, 0x80, 0x03, 0x00,
   0x06, 0x80, 0x23, 0x18, 0x74, 0x80, 0xff, 0x03, 0x03, 0x00, 0x47, 0x42,
   0xf2, 0x03, 0xfe, 0x1f, 0x00, 0x00, 0x8f, 0x81, 0xc1, 0xff, 0x01, 0x7f,
   0x00, 0x00, 0x06, 0x7e, 0x00, 0xfc, 0x00, 0x00, 0x00, 0x00, 0x04, 0x00,
   0x00, 0x00, 0x00, 0x00, 0x00, 0x00, 0x00, 0x00, 0x00, 0x00, 0x00, 0x00,
   0x00, 0x00, 0x00, 0x00, 0x00, 0x00, 0x00, 0x00};
