#define mule_width 64
#define mule_height 64
static char mule_bits[] = {
   0x00, 0x00, 0x00, 0x00, 0x00, 0x00, 0x00, 0x00, 0x00, 0x00, 0x00, 0xe0,
   0x00, 0x00, 0x00, 0x00, 0x00, 0x00, 0x00, 0xa0, 0x00, 0x00, 0x00, 0x00,
   0x00, 0x00, 0x00, 0xf8, 0x03, 0x1c, 0x00, 0x00, 0x00, 0x00, 0x00, 0x08,
   0x02, 0xec, 0x00, 0x00, 0x00, 0x00, 0x80, 0xff, 0x7f, 0x84, 0x03, 0x00,
   0x00, 0x00, 0x8e, 0x00, 0x40, 0x04, 0x0e, 0x00, 0x00, 0x80, 0x89, 0x92,
   0x64, 0x37, 0x18, 0x00, 0x00, 0x60, 0x88, 0xff, 0x7f, 0xd9, 0x31, 0x00,
   0x00, 0x18, 0x8e, 0x00, 0x80, 0x01, 0x3d, 0x00, 0x00, 0x7c, 0x4a, 0x77,
   0x77, 0xc0, 0x23, 0x00, 0x00, 0xe4, 0x3f, 0x55, 0x55, 0xf8, 0x21, 0x00,
   0x00, 0xac, 0xe0, 0x54, 0xd5, 0x4f, 0x3d, 0x01, 0x00, 0xe4, 0xc0, 0x56,
   0x35, 0xc1, 0xb5, 0x01, 0x00, 0xa4, 0x4e, 0x52, 0xa5, 0x40, 0xf5, 0x01,
   0x80, 0xbf, 0xca, 0x5a, 0xad, 0x5c, 0x3d, 0x01, 0x80, 0xe4, 0x8b, 0x4f,
   0xc9, 0x54, 0x37, 0x01, 0x80, 0xfc, 0xfe, 0x10, 0x40, 0xf4, 0x8f, 0x01,
   0x80, 0x84, 0x93, 0xff, 0xff, 0x1f, 0x43, 0x01, 0x80, 0x3c, 0xf3, 0xdc,
   0x49, 0xf2, 0x32, 0x01, 0x80, 0x2c, 0xb1, 0x74, 0x79, 0x9e, 0x12, 0x03,
   0xc0, 0xa8, 0xb1, 0x04, 0x49, 0x82, 0x92, 0x03, 0x40, 0xa8, 0xb0, 0x04,
   0x49, 0x82, 0x52, 0x03, 0x40, 0xe8, 0xb0, 0xe4, 0x69, 0xba, 0x32, 0x03,
   0x40, 0x5a, 0xb2, 0xa4, 0x69, 0xaa, 0x82, 0x03, 0x40, 0x72, 0xb2, 0xa4,
   0x69, 0xaa, 0xc3, 0x02, 0x40, 0x32, 0xb3, 0xa4, 0x49, 0x7a, 0x73, 0x02,
   0x60, 0x12, 0xf3, 0xa4, 0x79, 0xde, 0x53, 0x02, 0x20, 0x87, 0xb3, 0xfc,
   0x59, 0x76, 0x52, 0x03, 0x20, 0x85, 0xf2, 0x54, 0x79, 0x1e, 0xd2, 0x02,
   0x20, 0xc5, 0x92, 0x74, 0x49, 0x12, 0x32, 0x06, 0x20, 0x4d, 0x92, 0x14,
   0x49, 0xda, 0x02, 0x07, 0x20, 0x69, 0xd2, 0x14, 0x49, 0xba, 0xc2, 0x05,
   0x30, 0xab, 0xd3, 0x14, 0x49, 0x86, 0x7e, 0x05, 0x90, 0xbd, 0xd2, 0xf8,
   0x48, 0xc0, 0x31, 0x05, 0x90, 0xf7, 0x52, 0x01, 0x44, 0x38, 0x0e, 0x05,
   0x90, 0xbc, 0x73, 0x03, 0xf2, 0xc7, 0x73, 0x1f, 0x90, 0xe0, 0xd2, 0xff,
   0x0f, 0x7e, 0x52, 0x1b, 0x90, 0x26, 0x73, 0x0e, 0xfc, 0x07, 0xd2, 0x14,
   0x98, 0x2e, 0x92, 0xf7, 0x07, 0xe4, 0x52, 0x73, 0xf8, 0xaa, 0x12, 0x04,
   0x04, 0xa4, 0x7a, 0x42, 0xcc, 0xab, 0xd3, 0xe5, 0xe4, 0xa4, 0x0f, 0xe2,
   0x13, 0xae, 0x52, 0xa5, 0xa4, 0xa4, 0x6d, 0x23, 0x3a, 0xf8, 0x52, 0xa5,
   0xa4, 0xf4, 0x08, 0x0c, 0x14, 0x03, 0x5f, 0xa5, 0xa4, 0xac, 0x88, 0x01,
   0x9c, 0x3f, 0xe0, 0xff, 0xff, 0x07, 0x1b, 0x00, 0x6a, 0x20, 0x4f, 0x1f,
   0x70, 0x8c, 0x0d, 0x00, 0x02, 0x2c, 0x10, 0x21, 0x08, 0x88, 0x08, 0x00,
   0x00, 0x00, 0x0a, 0x24, 0x08, 0xc9, 0x00, 0x00, 0x00, 0x00, 0x00, 0xb4,
   0x04, 0x49, 0x00, 0x00, 0x00, 0x00, 0x00, 0x94, 0x19, 0x01, 0x00, 0x00,
   0x00, 0x80, 0x22, 0x00, 0x00, 0x00, 0x00, 0x00, 0x00, 0x00, 0x00, 0x00,
   0x00, 0x00, 0x00, 0x00, 0x00, 0x00, 0x00, 0x00, 0x00, 0x00, 0x00, 0x00,
   0x00, 0x00, 0x00, 0x00, 0x00, 0x00, 0x00, 0x00, 0x00, 0x00, 0x00, 0x00,
   0x00, 0x00, 0x00, 0x00, 0x00, 0xe0, 0xae, 0xee, 0xdc, 0xb9, 0x8a, 0x03,
   0x00, 0x40, 0xea, 0x66, 0xd4, 0xb8, 0x8a, 0x01, 0x00, 0x40, 0xee, 0xae,
   0x5c, 0xa8, 0xbb, 0x03, 0x00, 0x00, 0x00, 0x00, 0x00, 0x00, 0x00, 0x00,
   0x00, 0x00, 0x00, 0x00, 0x00, 0x00, 0x00, 0x00, 0x00, 0x00, 0x00, 0x00,
   0x00, 0x00, 0x00, 0x00, 0x00, 0x00, 0x00, 0x00, 0x00, 0x00, 0x00, 0x00,
   0x00, 0x00, 0x00, 0x00, 0x00, 0x00, 0x00, 0x00};
